<svg width="359" height="92" viewBox="0 0 359 92" fill="none" xmlns="http://www.w3.org/2000/svg">
<path d="M0 49C0 34.6406 11.6406 23 26 23H33V92H10C4.47715 92 0 87.5228 0 82V49Z" fill="#3547AC"/>
<path d="M41 0H48C62.3594 0 74 11.6406 74 26V82C74 87.5228 69.5228 92 64 92H41V0Z" fill="#F1582F"/>
<path d="M111.276 48.756C111.276 50.324 110.898 51.794 110.142 53.166C109.414 54.538 108.252 55.644 106.656 56.484C105.088 57.324 103.1 57.744 100.692 57.744H95.778V69H89.898V39.684H100.692C102.96 39.684 104.892 40.076 106.488 40.86C108.084 41.644 109.274 42.722 110.058 44.094C110.87 45.466 111.276 47.02 111.276 48.756ZM100.44 52.998C102.064 52.998 103.268 52.634 104.052 51.906C104.836 51.15 105.228 50.1 105.228 48.756C105.228 45.9 103.632 44.472 100.44 44.472H95.778V52.998H100.44ZM125.783 69.378C123.543 69.378 121.527 68.888 119.735 67.908C117.943 66.9 116.529 65.486 115.493 63.666C114.485 61.846 113.981 59.746 113.981 57.366C113.981 54.986 114.499 52.886 115.535 51.066C116.599 49.246 118.041 47.846 119.861 46.866C121.681 45.858 123.711 45.354 125.951 45.354C128.191 45.354 130.221 45.858 132.041 46.866C133.861 47.846 135.289 49.246 136.325 51.066C137.389 52.886 137.921 54.986 137.921 57.366C137.921 59.746 137.375 61.846 136.283 63.666C135.219 65.486 133.763 66.9 131.915 67.908C130.095 68.888 128.051 69.378 125.783 69.378ZM125.783 64.254C126.847 64.254 127.841 64.002 128.765 63.498C129.717 62.966 130.473 62.182 131.033 61.146C131.593 60.11 131.873 58.85 131.873 57.366C131.873 55.154 131.285 53.46 130.109 52.284C128.961 51.08 127.547 50.478 125.867 50.478C124.187 50.478 122.773 51.08 121.625 52.284C120.505 53.46 119.945 55.154 119.945 57.366C119.945 59.578 120.491 61.286 121.583 62.49C122.703 63.666 124.103 64.254 125.783 64.254ZM151.138 69.378C149.234 69.378 147.526 69.042 146.014 68.37C144.502 67.67 143.298 66.732 142.402 65.556C141.534 64.38 141.058 63.078 140.974 61.65H146.896C147.008 62.546 147.442 63.288 148.198 63.876C148.982 64.464 149.948 64.758 151.096 64.758C152.216 64.758 153.084 64.534 153.7 64.086C154.344 63.638 154.666 63.064 154.666 62.364C154.666 61.608 154.274 61.048 153.49 60.684C152.734 60.292 151.516 59.872 149.836 59.424C148.1 59.004 146.672 58.57 145.552 58.122C144.46 57.674 143.508 56.988 142.696 56.064C141.912 55.14 141.52 53.894 141.52 52.326C141.52 51.038 141.884 49.862 142.612 48.798C143.368 47.734 144.432 46.894 145.804 46.278C147.204 45.662 148.842 45.354 150.718 45.354C153.49 45.354 155.702 46.054 157.354 47.454C159.006 48.826 159.916 50.688 160.084 53.04H154.456C154.372 52.116 153.98 51.388 153.28 50.856C152.608 50.296 151.698 50.016 150.55 50.016C149.486 50.016 148.66 50.212 148.072 50.604C147.512 50.996 147.232 51.542 147.232 52.242C147.232 53.026 147.624 53.628 148.408 54.048C149.192 54.44 150.41 54.846 152.062 55.266C153.742 55.686 155.128 56.12 156.22 56.568C157.312 57.016 158.25 57.716 159.034 58.668C159.846 59.592 160.266 60.824 160.294 62.364C160.294 63.708 159.916 64.912 159.16 65.976C158.432 67.04 157.368 67.88 155.968 68.496C154.596 69.084 152.986 69.378 151.138 69.378ZM187.381 45.732L172.975 80.004H166.717L171.757 68.412L162.433 45.732H169.027L175.033 61.986L181.123 45.732H187.381ZM189.038 57.282C189.038 54.93 189.5 52.844 190.424 51.024C191.376 49.204 192.65 47.804 194.246 46.824C195.87 45.844 197.676 45.354 199.664 45.354C201.4 45.354 202.912 45.704 204.2 46.404C205.516 47.104 206.566 47.986 207.35 49.05V45.732H213.272V69H207.35V65.598C206.594 66.69 205.544 67.6 204.2 68.328C202.884 69.028 201.358 69.378 199.622 69.378C197.662 69.378 195.87 68.874 194.246 67.866C192.65 66.858 191.376 65.444 190.424 63.624C189.5 61.776 189.038 59.662 189.038 57.282ZM207.35 57.366C207.35 55.938 207.07 54.72 206.51 53.712C205.95 52.676 205.194 51.892 204.242 51.36C203.29 50.8 202.268 50.52 201.176 50.52C200.084 50.52 199.076 50.786 198.152 51.318C197.228 51.85 196.472 52.634 195.884 53.67C195.324 54.678 195.044 55.882 195.044 57.282C195.044 58.682 195.324 59.914 195.884 60.978C196.472 62.014 197.228 62.812 198.152 63.372C199.104 63.932 200.112 64.212 201.176 64.212C202.268 64.212 203.29 63.946 204.242 63.414C205.194 62.854 205.95 62.07 206.51 61.062C207.07 60.026 207.35 58.794 207.35 57.366ZM231.909 45.396C234.681 45.396 236.921 46.278 238.629 48.042C240.337 49.778 241.191 52.214 241.191 55.35V69H235.311V56.148C235.311 54.3 234.849 52.886 233.925 51.906C233.001 50.898 231.741 50.394 230.145 50.394C228.521 50.394 227.233 50.898 226.281 51.906C225.357 52.886 224.895 54.3 224.895 56.148V69H219.015V45.732H224.895V48.63C225.679 47.622 226.673 46.838 227.877 46.278C229.109 45.69 230.453 45.396 231.909 45.396ZM245.271 57.282C245.271 54.93 245.733 52.844 246.657 51.024C247.609 49.204 248.897 47.804 250.521 46.824C252.145 45.844 253.951 45.354 255.939 45.354C257.451 45.354 258.893 45.69 260.265 46.362C261.637 47.006 262.729 47.874 263.541 48.966V37.92H269.505V69H263.541V65.556C262.813 66.704 261.791 67.628 260.475 68.328C259.159 69.028 257.633 69.378 255.897 69.378C253.937 69.378 252.145 68.874 250.521 67.866C248.897 66.858 247.609 65.444 246.657 63.624C245.733 61.776 245.271 59.662 245.271 57.282ZM263.583 57.366C263.583 55.938 263.303 54.72 262.743 53.712C262.183 52.676 261.427 51.892 260.475 51.36C259.523 50.8 258.501 50.52 257.409 50.52C256.317 50.52 255.309 50.786 254.385 51.318C253.461 51.85 252.705 52.634 252.117 53.67C251.557 54.678 251.277 55.882 251.277 57.282C251.277 58.682 251.557 59.914 252.117 60.978C252.705 62.014 253.461 62.812 254.385 63.372C255.337 63.932 256.345 64.212 257.409 64.212C258.501 64.212 259.523 63.946 260.475 63.414C261.427 62.854 262.183 62.07 262.743 61.062C263.303 60.026 263.583 58.794 263.583 57.366ZM297.214 45.732V69H291.292V66.06C290.536 67.068 289.542 67.866 288.31 68.454C287.106 69.014 285.79 69.294 284.362 69.294C282.542 69.294 280.932 68.916 279.532 68.16C278.132 67.376 277.026 66.242 276.214 64.758C275.43 63.246 275.038 61.454 275.038 59.382V45.732H280.918V58.542C280.918 60.39 281.38 61.818 282.304 62.826C283.228 63.806 284.488 64.296 286.084 64.296C287.708 64.296 288.982 63.806 289.906 62.826C290.83 61.818 291.292 60.39 291.292 58.542V45.732H297.214ZM316.791 69L308.895 59.088V69H303.015V37.92H308.895V55.602L316.707 45.732H324.351L314.103 57.408L324.435 69H316.791ZM349.509 45.732V69H343.587V66.06C342.831 67.068 341.837 67.866 340.605 68.454C339.401 69.014 338.085 69.294 336.657 69.294C334.837 69.294 333.227 68.916 331.827 68.16C330.427 67.376 329.321 66.242 328.509 64.758C327.725 63.246 327.333 61.454 327.333 59.382V45.732H333.213V58.542C333.213 60.39 333.675 61.818 334.599 62.826C335.523 63.806 336.783 64.296 338.379 64.296C340.003 64.296 341.277 63.806 342.201 62.826C343.125 61.818 343.587 60.39 343.587 58.542V45.732H349.509Z" fill="#021375"/>
</svg>
